<svg width="28" height="28" viewBox="0 0 28 28" fill="none" xmlns="http://www.w3.org/2000/svg">
<path d="M15.5469 12.625H25.7734C26.1609 12.625 26.5325 12.7789 26.8065 13.0529C27.0805 13.3269 27.2344 13.6985 27.2344 14.0859C27.2344 14.4734 27.0805 14.845 26.8065 15.119C26.5325 15.393 26.1609 15.5469 25.7734 15.5469H15.5469V25.7734C15.5469 26.1609 15.393 26.5325 15.119 26.8065C14.845 27.0805 14.4734 27.2344 14.0859 27.2344C13.6985 27.2344 13.3269 27.0805 13.0529 26.8065C12.7789 26.5325 12.625 26.1609 12.625 25.7734V15.5469H2.39844C2.01097 15.5469 1.63938 15.393 1.3654 15.119C1.09142 14.845 0.9375 14.4734 0.9375 14.0859C0.9375 13.6985 1.09142 13.3269 1.3654 13.0529C1.63938 12.7789 2.01097 12.625 2.39844 12.625H12.625V2.39844C12.625 2.01097 12.7789 1.63938 13.0529 1.3654C13.3269 1.09142 13.6985 0.9375 14.0859 0.9375C14.4734 0.9375 14.845 1.09142 15.119 1.3654C15.393 1.63938 15.5469 2.01097 15.5469 2.39844V12.625Z" fill="#4F4242"/>
</svg>
