<svg width="54" height="53" viewBox="0 0 54 53" fill="none" xmlns="http://www.w3.org/2000/svg">
<path d="M26.8501 32.15C33.6846 32.15 39.2251 26.6095 39.2251 19.775C39.2251 12.9405 33.6846 7.40002 26.8501 7.40002C20.0156 7.40002 14.4751 12.9405 14.4751 19.775C14.4751 26.6095 20.0156 32.15 26.8501 32.15Z" stroke="#4F4242" stroke-width="3.6" stroke-linejoin="round"/>
<path d="M35.9248 47C42.7593 47 48.2998 41.4595 48.2998 34.625C48.2998 27.7905 42.7593 22.25 35.9248 22.25C29.0903 22.25 23.5498 27.7905 23.5498 34.625C23.5498 41.4595 29.0903 47 35.9248 47Z" stroke="#4F4242" stroke-width="3.6" stroke-linejoin="round"/>
<path d="M17.7749 47C24.6094 47 30.1499 41.4595 30.1499 34.625C30.1499 27.7905 24.6094 22.25 17.7749 22.25C10.9404 22.25 5.3999 27.7905 5.3999 34.625C5.3999 41.4595 10.9404 47 17.7749 47Z" stroke="#4F4242" stroke-width="3.6" stroke-linejoin="round"/>
</svg>
