<svg width="17" height="17" viewBox="0 0 17 17" fill="none" xmlns="http://www.w3.org/2000/svg">
<path d="M16.0701 4.87042C12.3229 4.32348 10.1721 5.48961 8.9777 7.0238V7.01348C9.60223 4.43356 8.02138 -0.980849 0.729926 0.154319C0.526952 0.154319 0 0.45015 0 0.904217C0 3.63206 1.00316 7.67051 7.35781 7.35059V16.0845C7.35781 16.4767 7.72082 16.8 8.1697 16.8C8.57565 16.8 8.93866 16.4801 8.9816 16.0845V12.0357C15.75 12.5792 16.8 8.41352 16.8 5.62032C16.8 5.44145 16.6829 4.93578 16.0701 4.87042ZM1.61989 1.47524C6.0619 0.81822 7.54907 4.02421 7.49833 5.9024C4.17268 6.41494 1.61989 4.5058 1.61989 1.47524ZM9.30558 10.6185C9.25093 8.74031 10.742 5.53433 15.1801 6.19135C15.1801 9.2219 12.6273 11.1345 9.30558 10.6185Z" fill="#5D9C54"/>
</svg>
