<svg width="53" height="54" viewBox="0 0 53 54" fill="none" xmlns="http://www.w3.org/2000/svg">
<path d="M44.2 25.136C44.8406 25.136 45.36 25.6554 45.36 26.296V51.64C45.36 52.2807 44.8406 52.8 44.2 52.8C43.5593 52.8 43.04 52.2807 43.04 51.64V26.296C43.04 25.6554 43.5593 25.136 44.2 25.136Z" fill="#4F4242" stroke="#4F4242" stroke-width="1.2" stroke-linecap="round"/>
<path d="M45.36 51.64C45.36 52.2807 44.8406 52.8 44.2 52.8L1.95996 52.8C1.31931 52.8 0.799957 52.2807 0.799957 51.64C0.799957 50.9994 1.31931 50.48 1.95996 50.48L44.2 50.48C44.8406 50.48 45.36 50.9994 45.36 51.64Z" fill="#4F4242" stroke="#4F4242" stroke-width="1.2" stroke-linecap="round"/>
<path d="M1.9602 52.8C1.31955 52.8 0.800195 52.2807 0.800195 51.64L0.800195 9.40002C0.800195 8.75937 1.31955 8.24002 1.9602 8.24002C2.60085 8.24002 3.1202 8.75937 3.1202 9.40002L3.1202 51.64C3.1202 52.2807 2.60085 52.8 1.9602 52.8Z" fill="#4F4242" stroke="#4F4242" stroke-width="1.2" stroke-linecap="round"/>
<path d="M0.800195 9.40001C0.800195 8.75936 1.31955 8.24001 1.9602 8.24001H27.3042C27.9448 8.24001 28.4642 8.75936 28.4642 9.40001C28.4642 10.0407 27.9448 10.56 27.3042 10.56H1.9602C1.31955 10.56 0.800195 10.0407 0.800195 9.40001Z" fill="#4F4242" stroke="#4F4242" stroke-width="1.2" stroke-linecap="round"/>
<path d="M40.3336 4.4646L40.3386 4.46964L40.7626 4.03854L42.6958 2.07262C43.2413 1.51784 43.9857 1.20374 44.7638 1.20001C45.5419 1.19628 46.2892 1.50323 46.8401 2.05275L51.542 6.74342C52.0922 7.29237 52.4009 8.03805 52.3997 8.81531C52.3985 9.59257 52.0874 10.3373 51.5354 10.8844L48.051 14.3383L48.0485 14.3409L29.3718 33.0811L22.4772 34.6033C21.497 34.8197 20.4744 34.5175 19.7693 33.803C19.0642 33.0885 18.7756 32.062 19.005 31.0847L20.6015 24.2831L40.3336 4.4646ZM28.0366 31L28.2081 30.9621L28.3322 30.8377L45.4346 13.6771L45.8579 13.2523L45.4333 12.8288L40.769 8.17562L40.7686 8.17523L40.7641 8.17077L40.339 7.74737L39.9156 8.17259L22.8298 25.3332L22.7097 25.4538L22.6708 25.6194L21.2636 31.6149L21.0456 32.5435L21.9771 32.3379L28.0366 31ZM41.7838 6.30888L41.3661 6.73362L41.7879 7.15434L46.4567 11.812L46.8791 12.2334L47.3028 11.8133L49.9021 9.23677L50.3306 8.812L49.9035 8.38587L45.2015 3.6952L44.7737 3.26839L44.35 3.69928L41.7838 6.30888Z" fill="#4F4242" stroke="#4F4242" stroke-width="1.2"/>
</svg>
