<svg width="53" height="23" viewBox="0 0 53 23" fill="none" xmlns="http://www.w3.org/2000/svg">
<path fill-rule="evenodd" clip-rule="evenodd" d="M51.202 0.821838C50.2094 0.821838 49.4047 1.61046 49.4047 2.58327V15.4115C43.844 10.3728 37.7806 5.06101 29.3133 3.89154C23.4031 3.07526 17.3829 4.1666 12.16 7.00072L12.1599 7.00076C6.93715 9.83513 2.79469 14.2583 0.356218 19.6039C-0.0488992 20.492 0.357281 21.5338 1.26344 21.9309C2.16961 22.3279 3.23261 21.9298 3.63773 21.0417C5.75848 16.3926 9.36071 12.5468 13.9012 10.0827L13.0397 8.55792L13.9012 10.0827C18.4416 7.6189 23.6745 6.67042 28.8117 7.37993C35.983 8.37039 41.1093 12.7395 46.5746 17.6584H34.0513C33.0587 17.6584 32.2541 18.447 32.2541 19.4198C32.2541 20.3926 33.0587 21.1812 34.0513 21.1812H51.202C52.1946 21.1812 52.9993 20.3926 52.9993 19.4198V2.58327C52.9993 1.61046 52.1946 0.821838 51.202 0.821838Z" fill="#4F4242"/>
</svg>
