<svg width="53" height="22" viewBox="0 0 53 22" fill="none" xmlns="http://www.w3.org/2000/svg">
<path fill-rule="evenodd" clip-rule="evenodd" d="M1.99648 0.606323C2.98908 0.606323 3.79374 1.39494 3.79374 2.36775V15.196C9.35447 10.1572 15.4179 4.84549 23.8852 3.67602C29.7954 2.85975 35.8156 3.95109 41.0385 6.78521L41.0385 6.78525C46.2613 9.61961 50.4038 14.0428 52.8423 19.3884C53.2474 20.2765 52.8412 21.3183 51.935 21.7153C51.0289 22.1124 49.9659 21.7143 49.5607 20.8262C47.44 16.1771 43.8378 12.3313 39.2973 9.86716L40.1587 8.3424L39.2973 9.86716C34.7569 7.40338 29.5239 6.4549 24.3868 7.16441C17.2155 8.15488 12.0892 12.524 6.62391 17.4429H19.1472C20.1398 17.4429 20.9444 18.2315 20.9444 19.2043C20.9444 20.1771 20.1398 20.9657 19.1472 20.9657H1.99648C1.00388 20.9657 0.199219 20.1771 0.199219 19.2043V2.36775C0.199219 1.39494 1.00388 0.606323 1.99648 0.606323Z" fill="#4F4242"/>
</svg>
