<svg width="42" height="42" viewBox="0 0 42 42" fill="none" xmlns="http://www.w3.org/2000/svg">
<path d="M5.2041 9.69608H13.7796M37.5271 9.69608H13.7796M13.7796 9.69608C13.7796 9.69608 13.7796 7.83706 13.7796 4.8986C13.7796 1.96014 15.4587 1.96014 17.5576 1.96014H21.0358" stroke="#4F4242" stroke-width="3.6" stroke-linecap="round" stroke-linejoin="round"/>
<path d="M36.8672 9.69608H28.2917M4.54417 9.69608H28.2917M28.2917 9.69608C28.2917 9.69608 28.2917 7.83706 28.2917 4.8986C28.2917 1.96014 26.6126 1.96014 24.5137 1.96014H21.0355" stroke="#4F4242" stroke-width="3.6" stroke-linecap="round" stroke-linejoin="round"/>
<path d="M7.66309 9.3363L9.82195 36.4421C9.82195 39.4405 11.0213 40.0402 11.9808 40.0402H21.0361" stroke="#4F4242" stroke-width="3.6" stroke-linejoin="round"/>
<path d="M34.4092 9.3363L32.2406 36.4421C32.2406 39.4405 31.0359 40.0402 30.0721 40.0402H20.9762" stroke="#4F4242" stroke-width="3.6" stroke-linejoin="round"/>
</svg>
