<svg width="53" height="54" viewBox="0 0 53 54" fill="none" xmlns="http://www.w3.org/2000/svg">
<g clip-path="url(#clip0_288_103)">
<path d="M41.6498 13.516C40.0583 13.516 38.9216 14.5312 38.4382 15.8072V9.61804C38.4382 7.77218 37.1182 5.91871 34.9677 5.91871C33.3762 5.91871 32.2395 6.9339 31.7561 8.20987V5.81938C31.7561 3.97351 30.436 2.12004 28.2856 2.12004C26.1351 2.12004 24.8151 3.97351 24.8151 5.81938V8.20988C24.3317 6.9339 23.195 5.91871 21.6035 5.91871C19.453 5.91871 18.1329 7.77217 18.1329 9.61804V34.4598L14.1397 29.8643L14.1397 29.8642L14.1326 29.8561C12.7502 28.2844 10.4104 28.2844 9.02798 29.8561L10.3796 31.0449L9.02798 29.8561C7.7645 31.2926 7.7645 33.5274 9.02798 34.964L9.02796 34.964L9.03343 34.9701L20.411 47.7873C20.4115 47.7879 20.412 47.7884 20.4125 47.789C22.1162 49.7173 24.3936 51.304 27.2415 51.304H34.9677C40.8051 51.304 45.1204 46.0451 45.1204 40.0074V17.2154C45.1204 15.3695 43.8003 13.516 41.6498 13.516Z" stroke="#4F4242" stroke-width="3.6"/>
</g>
<defs>
<clipPath id="clip0_288_103">
<rect width="52.8" height="52.8" fill="white" transform="translate(0.200195 0.400024)"/>
</clipPath>
</defs>
</svg>
