<svg width="504" height="225" viewBox="0 0 504 225" fill="none" xmlns="http://www.w3.org/2000/svg">
<path d="M3 8.72381C22.0696 -0.584221 21.2914 10.2525 15.5354 22.8016C12.9641 29.0633 8.71369 35.0531 6.69212 41.5647C5.49524 45.3423 7.36033 51.3468 13.7549 48.3739C16.3559 47.1649 21.3083 43.5747 25.2119 39.9405C31.2808 33.6824 53.8269 12.7807 48.1682 7.9558C44.789 6.77622 43.3891 11.3218 41.8962 13.5414C38.83 18.866 35.8611 24.8411 34.1694 30.3899C32.8203 34.5901 31.6995 38.9814 31.2597 41.7778C31.0863 42.9243 31.0271 44.0341 31.2132 45.1806C31.4796 46.8232 33.3236 50.9536 38.2168 48.8553C40.471 47.8888 42.5517 46.4667 44.4464 45.0446C49.8302 40.9363 53.6069 37.5519 59.1303 31.9921C64.8821 26.3661 78.5678 11.1197 73.4166 3.21175" stroke="#9FA01C" stroke-width="4.2" stroke-linecap="round" stroke-linejoin="round"/>
<path d="M64.0317 38.1803C64.0317 38.1803 72.7143 38.3016 76.7744 32.705C80.8345 27.1084 74.2538 26.8659 70.6124 28.5673C66.9711 30.2686 65.0129 34.8069 64.0317 38.1803Z" stroke="#9FA01C" stroke-width="4.2" stroke-linecap="round" stroke-linejoin="round"/>
<path d="M64.0319 38.1803C64.0319 38.1803 59.7688 57.4835 73.4123 45.967" stroke="#9FA01C" stroke-width="4.2" stroke-linecap="round" stroke-linejoin="round"/>
<path d="M73.4165 45.967C80.7162 40.4219 104.455 17.1426 105.901 7.886C106.92 1.37442 101.422 2.86635 99.9761 3.99448C98.5297 5.12262 95.3535 7.5516 83.5074 38.8895C78.665 51.6959 83.3679 50.8323 88.0708 47.6133C89.8513 46.3933 91.4119 44.9528 92.761 43.3727L99.1048 34.2961" stroke="#9FA01C" stroke-width="4.2" stroke-linecap="round" stroke-linejoin="round"/>
<path d="M109.653 32.6719C109.767 30.1216 107.132 28.7841 104.358 29.8718C104.358 29.8718 98.8722 31.6834 94.8925 42.0314C94.8925 42.0314 92.5622 51.3284 101.727 49.3146C105.952 48.3849 109.301 46.2757 112.516 43.7732C113.89 42.7002 115.108 41.4838 116.17 40.1683L118.855 36.8353" stroke="#9FA01C" stroke-width="4.2" stroke-linecap="round" stroke-linejoin="round"/>
<path d="M194.098 38.1803C194.098 38.1803 202.78 38.3016 206.84 32.705C210.9 27.1084 204.32 26.8659 200.678 28.5673C197.037 30.2723 195.079 34.8069 194.098 38.1803Z" stroke="#9FA01C" stroke-width="4.2" stroke-linecap="round" stroke-linejoin="round"/>
<path d="M126.595 29.3316C126.595 29.3316 119.041 33.8883 116.736 41.1789C114.427 48.4695 121.143 49.7446 121.143 49.7446C121.143 49.7446 127.018 50.7147 131.632 44.2142C131.632 44.2142 136.14 39.9919 136.14 33.6163C136.14 27.2407 131.315 29.802 131.315 29.802C131.315 29.802 127.855 32.1575 127.644 38.4927C127.567 40.782 128.409 42.3474 129.513 43.4204C131.602 45.4452 135.142 46.1912 137.874 44.8609C141.19 43.2477 143.486 40.3815 145.093 37.5666L145.267 37.2763C146.337 35.4794 147.682 33.8074 149.314 32.3632C157.388 25.2196 158.153 35.1046 148.189 49.7483L158.297 36.365C159.202 35.1487 160.204 33.9838 161.325 32.9108C170.215 24.4443 172.237 34.6563 161.968 49.7483L176.068 35.1193C186.713 22.9854 190.646 31.4887 179.608 47.7088C179.608 47.7088 176.978 51.5893 184.396 48.7782C184.396 48.7782 185.762 48.2049 187.483 47.2495C191.124 45.2284 193.543 41.9101 194.089 38.184C194.089 38.184 189.826 57.4872 203.469 45.9707" stroke="#9FA01C" stroke-width="4.2" stroke-linecap="round" stroke-linejoin="round"/>
<path d="M227.995 28.565C227.995 28.565 240.903 30.1562 244.756 28.565" stroke="#9FA01C" stroke-width="4.2" stroke-miterlimit="10" stroke-linecap="round"/>
<path d="M256.251 29.1162C256.251 29.1162 248.697 33.6728 246.392 40.9634C244.083 48.2541 250.799 49.5292 250.799 49.5292C250.799 49.5292 256.673 50.4993 261.288 43.9987C261.288 43.9987 263.753 41.6947 265.039 37.9134C265.491 36.5795 265.8 35.0619 265.8 33.3972C265.8 27.0179 260.975 29.5829 260.975 29.5829C260.975 29.5829 256.665 31.9604 257.304 38.2736C257.574 40.9451 259.055 43.2013 260.433 43.9951" stroke="#9FA01C" stroke-width="4.2" stroke-linecap="round" stroke-linejoin="round"/>
<path d="M247.695 37.9649L242.197 43.521C231.509 52.9908 228.811 48.673 229.924 43.6276C231.171 37.9502 240.611 16.5965 240.611 16.5965" stroke="#9FA01C" stroke-width="4.2" stroke-miterlimit="10" stroke-linecap="round"/>
<path d="M299.788 133.026C300.154 128.528 298.063 125.374 293.857 124.908C285.246 124.374 276.636 130.919 270.76 136.799C265.337 142.366 261.418 148.071 259.199 153.409C252.91 167.651 262.793 175.654 275.515 168.216C286.065 161.725 298.27 144.703 299.78 133.217L299.796 133.019L299.788 133.026Z" stroke="#DE7285" stroke-width="6" stroke-miterlimit="10" stroke-linecap="round"/>
<path d="M299.788 133.026C300.154 128.528 298.063 125.374 293.857 124.908C285.246 124.374 276.636 130.919 270.76 136.799C265.337 142.366 261.418 148.071 259.199 153.409C252.91 167.651 262.793 175.654 275.515 168.216C286.065 161.725 298.27 144.703 299.78 133.217L299.796 133.019L299.788 133.026Z" stroke="#DE7285" stroke-width="6" stroke-miterlimit="10" stroke-linecap="round"/>
<path d="M305.815 131.354L296.624 144.665C293.165 149.674 290.955 155.417 290.502 161.412C290.033 167.529 291.464 172.752 299.947 166.429C301.315 165.413 302.571 164.276 303.764 163.077C312.828 153.928 363.562 101.991 366.281 82.754C368.197 69.2217 357.861 72.3222 355.142 74.6667C352.423 77.0112 346.993 82.2347 324.182 147.185C308.526 191.768 343.725 155.799 343.725 155.799L347.271 152.194C347.271 152.194 397.011 103.885 399.993 82.754C401.909 69.2217 391.573 72.3222 388.854 74.6667C386.134 77.0112 380.704 82.2347 357.893 147.185C342.238 191.768 377.993 155.532 377.993 155.532L386.341 147.192M386.341 147.192C386.341 147.192 402.664 147.444 410.297 135.814C417.93 124.183 405.558 123.679 398.713 127.215C391.867 130.758 388.186 140.182 386.341 147.192Z" stroke="#DE7285" stroke-width="6" stroke-miterlimit="10" stroke-linecap="round"/>
<path d="M386.341 147.192C386.341 147.192 378.327 187.308 403.976 163.375C403.976 163.375 402.298 165.948 426.294 139.136C443.134 120.319 436.01 146.673 433.569 154.76C432.798 157.334 432.233 159.961 431.963 162.626C431.144 170.813 435.835 180.297 453.009 158.479L469.881 137.234C469.976 137.12 470.167 137.211 470.111 137.349C467.281 144.443 445.925 195.693 439.461 210.546C431.494 228.867 412.706 222.727 426.668 201.619C426.668 201.619 439.31 182.543 477.489 181.29C477.489 181.29 490.712 180.397 501 187.148" stroke="#DE7285" stroke-width="6" stroke-miterlimit="10" stroke-linecap="round"/>
<path d="M153 87.1068C188.85 67.7631 187.387 90.2837 176.566 116.363C171.732 129.376 163.742 141.824 159.941 155.356C157.691 163.206 161.197 175.685 173.219 169.507C178.109 166.994 187.419 159.533 194.758 151.98C206.167 138.975 248.553 95.5377 237.915 85.5108C231.562 83.0594 228.93 92.506 226.124 97.1185C220.359 108.184 214.778 120.601 211.598 132.133C209.061 140.861 206.954 149.987 206.127 155.799C205.801 158.181 205.69 160.488 206.04 162.87C206.541 166.284 210.007 174.868 219.207 170.507C223.444 168.499 227.356 165.543 230.918 162.588C241.04 154.05 248.14 147.017 258.523 135.462C269.337 123.771 295.065 92.086 285.381 75.6518" stroke="#DE7285" stroke-width="6" stroke-miterlimit="10" stroke-linecap="round"/>
</svg>
