<svg width="42" height="42" viewBox="0 0 42 42" fill="none" xmlns="http://www.w3.org/2000/svg">
<circle cx="10.3936" cy="20.0481" r="3.128" fill="#4F4242"/>
<circle cx="17.7374" cy="11.3441" r="3.128" fill="#4F4242"/>
<circle cx="29.1612" cy="12.568" r="3.128" fill="#4F4242"/>
<path d="M31.3444 26.078L31.344 26.078C28.634 26.5074 26.5089 28.6326 26.0795 31.3425L26.0794 31.3429C26.001 31.8389 26.0012 32.3955 26.0015 33.1034C26.0015 33.1483 26.0016 33.1939 26.0016 33.2401V34.6001C26.0016 37.3616 23.7631 39.6001 21.0016 39.6001C10.7291 39.6001 2.40156 31.2727 2.40156 21.0001C2.40156 10.7276 10.7291 2.4001 21.0016 2.4001C31.2741 2.4001 39.6016 10.7276 39.6016 21.0001C39.6016 23.7616 37.3631 26.0001 34.6016 26.0001H33.2416C33.1954 26.0001 33.1498 26.0001 33.1049 26.0001C32.397 25.9998 31.8404 25.9995 31.3444 26.078Z" stroke="#4F4242" stroke-width="3.6" stroke-linecap="round" stroke-linejoin="round"/>
</svg>
