<svg width="31" height="31" viewBox="0 0 31 31" fill="none" xmlns="http://www.w3.org/2000/svg">
<path d="M0.538122 27.2179L7.15096 20.6014C5.19929 17.9934 4.30808 14.7428 4.65671 11.504C5.00534 8.26531 6.56793 5.27887 9.02994 3.14591C11.4919 1.01294 14.6706 -0.108172 17.9259 0.00823615C21.1813 0.124645 24.2717 1.46993 26.5751 3.7733C28.8785 6.07667 30.2237 9.16709 30.3402 12.4225C30.4566 15.6778 29.3354 18.8564 27.2025 21.3184C25.0695 23.7805 22.0831 25.343 18.8443 25.6917C15.6056 26.0403 12.355 25.1491 9.74696 23.1974L3.13046 29.8139C2.78621 30.1577 2.3195 30.3506 1.83299 30.3503C1.34649 30.3499 0.880054 30.1563 0.536289 29.8121C0.192524 29.4678 -0.000408667 29.0011 -6.48499e-05 28.5146C0.000278967 28.0281 0.193871 27.5617 0.538122 27.2179ZM26.5843 12.9308C26.5843 11.1178 26.0467 9.34549 25.0394 7.83804C24.0322 6.33059 22.6005 5.15567 20.9256 4.46187C19.2506 3.76806 17.4075 3.58653 15.6293 3.94023C13.8511 4.29393 12.2178 5.16697 10.9358 6.44895C9.65383 7.73093 8.78079 9.36428 8.42709 11.1424C8.0734 12.9206 8.25493 14.7637 8.94873 16.4387C9.64253 18.1137 10.8174 19.5453 12.3249 20.5526C13.8323 21.5598 15.6046 22.0974 17.4176 22.0974C19.8479 22.0945 22.1778 21.1278 23.8962 19.4094C25.6147 17.6909 26.5814 15.361 26.5843 12.9308Z" fill="#C1837B"/>
</svg>
