<svg width="51" height="50" viewBox="0 0 51 50" fill="none" xmlns="http://www.w3.org/2000/svg">
<path d="M21.5098 3.3302C24.0667 0.809002 28.2423 0.893075 30.6914 3.58215L32.4834 5.54993L32.6133 5.68469C33.2807 6.34033 34.1936 6.69143 35.1338 6.64758L37.793 6.52356L38.1426 6.51672C41.6168 6.54151 44.4384 9.36252 44.4629 12.837L44.4561 13.1866L44.332 15.8448C44.2852 16.8478 44.6875 17.8201 45.4297 18.4962L47.3975 20.2882L47.6494 20.5304C50.0893 23.0049 50.0894 26.9954 47.6494 29.4698L47.3975 29.712L45.4297 31.504C44.6876 32.18 44.2853 33.1516 44.332 34.1544V34.1554L44.4561 36.8136L44.4629 37.1632C44.4383 40.6375 41.6168 43.4589 38.1426 43.4835L37.793 43.4767L35.1348 43.3527H35.1338C34.1935 43.3088 33.2807 43.6599 32.6133 44.3156L32.4834 44.4503L30.6914 46.4181C28.2423 49.1073 24.0667 49.1912 21.5098 46.67L21.2676 46.4181L19.4756 44.4503C18.8418 43.7547 17.9482 43.3572 17.0127 43.3488L16.8242 43.3527L14.166 43.4767C10.4159 43.6521 7.32786 40.5634 7.50293 36.8136L7.62695 34.1544L7.63086 33.9669C7.62304 33.0937 7.27602 32.2568 6.66406 31.6339L6.5293 31.504L4.56152 29.712C1.7858 27.184 1.7858 22.8163 4.56152 20.2882L6.5293 18.4962L6.66406 18.3663C7.27608 17.7434 7.62296 16.9066 7.63086 16.0333L7.62695 15.8448L7.50293 13.1866C7.32778 9.43654 10.4159 6.34841 14.166 6.52356L16.8242 6.64758L17.0127 6.65149C17.9481 6.643 18.8418 6.24566 19.4756 5.54993L21.2676 3.58215L21.5098 3.3302ZM26 18.0001C22.1717 18.0001 18.999 21.1712 18.999 25.0001C18.9992 28.8289 22.1722 32 26 32.0001C29.833 32 32.9872 28.8235 32.9873 25.0001C32.9873 21.1765 29.8332 18.0003 26 18.0001Z" fill="#CFEAF1"/>
<path d="M21.5098 3.3302L20.4566 2.26211L20.4423 2.27622L20.4284 2.2907L21.5098 3.3302ZM30.6914 3.58215L31.8004 2.57219L31.8004 2.57212L30.6914 3.58215ZM32.4834 5.54993L31.3744 6.55989L31.3886 6.57557L31.4034 6.59084L32.4834 5.54993ZM32.6133 5.68469L31.5332 6.72561L31.5475 6.74036L31.5621 6.75472L32.6133 5.68469ZM35.1338 6.64758L35.2037 8.14595L35.2037 8.14595L35.1338 6.64758ZM37.793 6.52356L37.7636 5.02385L37.7434 5.02424L37.7231 5.02519L37.793 6.52356ZM38.1426 6.51672L38.1533 5.01676L38.1333 5.01662L38.1133 5.01701L38.1426 6.51672ZM44.4629 12.837L45.9626 12.8664L45.963 12.8464L45.9629 12.8265L44.4629 12.837ZM44.4561 13.1866L45.9544 13.2566L45.9554 13.2363L45.9558 13.216L44.4561 13.1866ZM44.332 15.8448L45.8304 15.9148L45.8304 15.9148L44.332 15.8448ZM45.4297 18.4962L44.4195 19.605L44.4197 19.6053L45.4297 18.4962ZM47.3975 20.2882L48.437 19.2068L48.4224 19.1928L48.4074 19.1792L47.3975 20.2882ZM47.6494 20.5304L48.7175 19.4772L48.7034 19.4629L48.6889 19.449L47.6494 20.5304ZM47.6494 29.4698L48.6889 30.5513L48.7034 30.5373L48.7175 30.5231L47.6494 29.4698ZM47.3975 29.712L48.4074 30.8211L48.4224 30.8075L48.437 30.7934L47.3975 29.712ZM45.4297 31.504L44.4197 30.395L44.4196 30.3951L45.4297 31.504ZM44.332 34.1544H45.832V34.1195L45.8304 34.0845L44.332 34.1544ZM44.332 34.1554H42.832V34.1904L42.8337 34.2253L44.332 34.1554ZM44.4561 36.8136L45.9558 36.7843L45.9554 36.764L45.9544 36.7437L44.4561 36.8136ZM44.4629 37.1632L45.9629 37.1738L45.963 37.1538L45.9626 37.1339L44.4629 37.1632ZM38.1426 43.4835L38.1133 44.9832L38.1332 44.9836L38.1532 44.9835L38.1426 43.4835ZM37.793 43.4767L37.7231 44.9751L37.7433 44.976L37.7636 44.9764L37.793 43.4767ZM35.1348 43.3527L35.2047 41.8543L35.1697 41.8527H35.1348V43.3527ZM35.1338 43.3527L35.0639 44.851L35.0988 44.8527H35.1338V43.3527ZM32.6133 44.3156L31.5621 43.2455L31.5475 43.2599L31.5332 43.2746L32.6133 44.3156ZM32.4834 44.4503L31.4034 43.4094L31.3886 43.4247L31.3744 43.4403L32.4834 44.4503ZM30.6914 46.4181L31.8004 47.4281L31.8004 47.4281L30.6914 46.4181ZM21.5098 46.67L20.4284 47.7095L20.4423 47.724L20.4566 47.7381L21.5098 46.67ZM21.2676 46.4181L20.1585 47.4281L20.1722 47.443L20.1862 47.4576L21.2676 46.4181ZM19.4756 44.4503L20.5846 43.4403L20.5844 43.4401L19.4756 44.4503ZM17.0127 43.3488L17.0263 41.8488L17.004 41.8486L16.9816 41.8491L17.0127 43.3488ZM16.8242 43.3527L16.7931 41.853L16.7737 41.8534L16.7543 41.8543L16.8242 43.3527ZM14.166 43.4767L14.0961 41.9783L14.0959 41.9783L14.166 43.4767ZM7.50293 36.8136L9.0013 36.8836L9.0013 36.8835L7.50293 36.8136ZM7.62695 34.1544L9.12532 34.2243L9.12623 34.205L9.12663 34.1857L7.62695 34.1544ZM7.63086 33.9669L9.13053 33.9982L9.131 33.9758L9.1308 33.9535L7.63086 33.9669ZM6.66406 31.6339L7.73409 30.5827L7.71973 30.5681L7.70498 30.5539L6.66406 31.6339ZM6.5293 31.504L7.57021 30.424L7.55494 30.4093L7.53926 30.395L6.5293 31.504ZM4.56152 29.712L3.55149 30.821L3.55156 30.8211L4.56152 29.712ZM4.56152 20.2882L3.55156 19.1792L3.55149 19.1792L4.56152 20.2882ZM6.5293 18.4962L7.53926 19.6053L7.55494 19.591L7.57021 19.5763L6.5293 18.4962ZM6.66406 18.3663L7.70498 19.4464L7.71973 19.4322L7.73409 19.4175L6.66406 18.3663ZM7.63086 16.0333L9.1308 16.0469L9.131 16.0246L9.13054 16.0022L7.63086 16.0333ZM7.62695 15.8448L9.12663 15.8138L9.12623 15.7943L9.12532 15.7749L7.62695 15.8448ZM7.50293 13.1866L9.0013 13.1167L9.0013 13.1167L7.50293 13.1866ZM14.166 6.52356L14.096 8.02193L14.0961 8.02193L14.166 6.52356ZM16.8242 6.64758L16.7543 8.14595L16.7737 8.14686L16.7931 8.14726L16.8242 6.64758ZM17.0127 6.65149L16.9816 8.15117L17.004 8.15163L17.0263 8.15143L17.0127 6.65149ZM19.4756 5.54993L20.5845 6.56007L20.5846 6.55989L19.4756 5.54993ZM21.2676 3.58215L20.1862 2.54266L20.1722 2.55724L20.1585 2.57219L21.2676 3.58215ZM26 18.0001L26.0001 16.5001H26V18.0001ZM18.999 25.0001L17.499 25.0001L17.499 25.0002L18.999 25.0001ZM26 32.0001L25.9999 33.5001L26.0001 33.5001L26 32.0001ZM32.9873 25.0001L34.4873 25.0002V25.0001H32.9873ZM21.5098 3.3302L22.5629 4.39829C24.5168 2.47168 27.7101 2.53643 29.5824 4.59218L30.6914 3.58215L31.8004 2.57212C28.7744 -0.75028 23.6165 -0.853672 20.4566 2.26211L21.5098 3.3302ZM30.6914 3.58215L29.5824 4.59212L31.3744 6.55989L32.4834 5.54993L33.5924 4.53996L31.8004 2.57219L30.6914 3.58215ZM32.4834 5.54993L31.4034 6.59084L31.5332 6.72561L32.6133 5.68469L33.6933 4.64378L33.5634 4.50901L32.4834 5.54993ZM32.6133 5.68469L31.5621 6.75472C32.5264 7.7021 33.8452 8.2093 35.2037 8.14595L35.1338 6.64758L35.0639 5.14921C34.5419 5.17355 34.0349 4.97857 33.6645 4.61467L32.6133 5.68469ZM35.1338 6.64758L35.2037 8.14595L37.8629 8.02193L37.793 6.52356L37.7231 5.02519L35.0639 5.14921L35.1338 6.64758ZM37.793 6.52356L37.8223 8.02327L38.1719 8.01644L38.1426 6.51672L38.1133 5.01701L37.7636 5.02385L37.793 6.52356ZM38.1426 6.51672L38.1319 8.01669C40.7862 8.03563 42.9442 10.1934 42.9629 12.8476L44.4629 12.837L45.9629 12.8265C45.9326 8.53162 42.4474 5.0474 38.1533 5.01676L38.1426 6.51672ZM44.4629 12.837L42.9632 12.8077L42.9563 13.1573L44.4561 13.1866L45.9558 13.216L45.9626 12.8664L44.4629 12.837ZM44.4561 13.1866L42.9577 13.1167L42.8337 15.7749L44.332 15.8448L45.8304 15.9148L45.9544 13.2566L44.4561 13.1866ZM44.332 15.8448L42.8337 15.7749C42.766 17.2235 43.347 18.628 44.4195 19.605L45.4297 18.4962L46.4399 17.3874C46.028 17.0122 45.8044 16.4721 45.8304 15.9148L44.332 15.8448ZM45.4297 18.4962L44.4197 19.6053L46.3875 21.3972L47.3975 20.2882L48.4074 19.1792L46.4397 17.3872L45.4297 18.4962ZM47.3975 20.2882L46.358 21.3696L46.6099 21.6118L47.6494 20.5304L48.6889 19.449L48.437 19.2068L47.3975 20.2882ZM47.6494 20.5304L46.5813 21.5836C48.4454 23.4741 48.4454 26.5263 46.5814 28.4166L47.6494 29.4698L48.7175 30.5231C51.7335 27.4645 51.7333 22.5357 48.7175 19.4772L47.6494 20.5304ZM47.6494 29.4698L46.6099 28.3884L46.358 28.6306L47.3975 29.712L48.437 30.7934L48.6889 30.5513L47.6494 29.4698ZM47.3975 29.712L46.3875 28.603L44.4197 30.395L45.4297 31.504L46.4397 32.6131L48.4074 30.8211L47.3975 29.712ZM45.4297 31.504L44.4196 30.3951C43.3473 31.3718 42.7661 32.7755 42.8337 34.2243L44.332 34.1544L45.8304 34.0845C45.8044 33.5276 46.0279 32.9881 46.4398 32.6129L45.4297 31.504ZM44.332 34.1544H42.832V34.1554H44.332H45.832V34.1544H44.332ZM44.332 34.1554L42.8337 34.2253L42.9577 36.8835L44.4561 36.8136L45.9544 36.7437L45.8304 34.0855L44.332 34.1554ZM44.4561 36.8136L42.9563 36.8429L42.9632 37.1925L44.4629 37.1632L45.9626 37.1339L45.9558 36.7843L44.4561 36.8136ZM44.4629 37.1632L42.9629 37.1526C42.9442 39.8067 40.7861 41.9648 38.132 41.9836L38.1426 43.4835L38.1532 44.9835C42.4475 44.9531 45.9325 41.4682 45.9629 37.1738L44.4629 37.1632ZM38.1426 43.4835L38.1719 41.9838L37.8223 41.977L37.793 43.4767L37.7636 44.9764L38.1133 44.9832L38.1426 43.4835ZM37.793 43.4767L37.8629 41.9783L35.2047 41.8543L35.1348 43.3527L35.0649 44.851L37.7231 44.9751L37.793 43.4767ZM35.1348 43.3527V41.8527H35.1338V43.3527V44.8527H35.1348V43.3527ZM35.1338 43.3527L35.2037 41.8543C33.8451 41.7909 32.5264 42.2982 31.5621 43.2455L32.6133 44.3156L33.6645 45.3856C34.0349 45.0217 34.5418 44.8267 35.0639 44.851L35.1338 43.3527ZM32.6133 44.3156L31.5332 43.2746L31.4034 43.4094L32.4834 44.4503L33.5634 45.4912L33.6933 45.3565L32.6133 44.3156ZM32.4834 44.4503L31.3744 43.4403L29.5824 45.4081L30.6914 46.4181L31.8004 47.4281L33.5924 45.4603L32.4834 44.4503ZM30.6914 46.4181L29.5824 45.4081C27.7102 47.4639 24.5169 47.5286 22.5629 45.6019L21.5098 46.67L20.4566 47.7381C23.6165 50.8538 28.7745 50.7507 31.8004 47.4281L30.6914 46.4181ZM21.5098 46.67L22.5912 45.6305L22.349 45.3786L21.2676 46.4181L20.1862 47.4576L20.4284 47.7095L21.5098 46.67ZM21.2676 46.4181L22.3766 45.4081L20.5846 43.4403L19.4756 44.4503L18.3665 45.4603L20.1585 47.4281L21.2676 46.4181ZM19.4756 44.4503L20.5844 43.4401C19.6689 42.4352 18.378 41.8611 17.0263 41.8488L17.0127 43.3488L16.9991 44.8487C17.5183 44.8534 18.0147 45.0741 18.3668 45.4605L19.4756 44.4503ZM17.0127 43.3488L16.9816 41.8491L16.7931 41.853L16.8242 43.3527L16.8553 44.8523L17.0438 44.8484L17.0127 43.3488ZM16.8242 43.3527L16.7543 41.8543L14.0961 41.9783L14.166 43.4767L14.2359 44.9751L16.8941 44.851L16.8242 43.3527ZM14.166 43.4767L14.0959 41.9783C11.2287 42.1124 8.86743 39.7509 9.0013 36.8836L7.50293 36.8136L6.00456 36.7436C5.78829 41.376 9.60301 45.1917 14.2361 44.975L14.166 43.4767ZM7.50293 36.8136L9.0013 36.8835L9.12532 34.2243L7.62695 34.1544L6.12858 34.0845L6.00456 36.7437L7.50293 36.8136ZM7.62695 34.1544L9.12663 34.1857L9.13053 33.9982L7.63086 33.9669L6.13118 33.9357L6.12728 34.1232L7.62695 34.1544ZM7.63086 33.9669L9.1308 33.9535C9.1195 32.6913 8.61809 31.4825 7.73409 30.5827L6.66406 31.6339L5.59404 32.6851C5.93395 33.0311 6.12658 33.496 6.13092 33.9803L7.63086 33.9669ZM6.66406 31.6339L7.70498 30.5539L7.57021 30.424L6.5293 31.504L5.48838 32.5841L5.62315 32.714L6.66406 31.6339ZM6.5293 31.504L7.53926 30.395L5.57149 28.603L4.56152 29.712L3.55156 30.8211L5.51933 32.6131L6.5293 31.504ZM4.56152 29.712L5.57155 28.6031C3.44912 26.67 3.44912 23.3302 5.57155 21.3972L4.56152 20.2882L3.55149 19.1792C0.122476 22.3023 0.122476 27.698 3.55149 30.821L4.56152 29.712ZM4.56152 20.2882L5.57149 21.3972L7.53926 19.6053L6.5293 18.4962L5.51933 17.3872L3.55156 19.1792L4.56152 20.2882ZM6.5293 18.4962L7.57021 19.5763L7.70498 19.4464L6.66406 18.3663L5.62315 17.2863L5.48838 17.4162L6.5293 18.4962ZM6.66406 18.3663L7.73409 19.4175C8.61823 18.5176 9.11939 17.3089 9.1308 16.0469L7.63086 16.0333L6.13092 16.0198C6.12654 16.5043 5.93393 16.9691 5.59404 17.3151L6.66406 18.3663ZM7.63086 16.0333L9.13054 16.0022L9.12663 15.8138L7.62695 15.8448L6.12728 15.8759L6.13118 16.0644L7.63086 16.0333ZM7.62695 15.8448L9.12532 15.7749L9.0013 13.1167L7.50293 13.1866L6.00456 13.2566L6.12858 15.9148L7.62695 15.8448ZM7.50293 13.1866L9.0013 13.1167C8.86737 10.2492 11.2286 7.888 14.096 8.02193L14.166 6.52356L14.236 5.02519C9.6032 4.80882 5.78819 8.62383 6.00456 13.2566L7.50293 13.1866ZM14.166 6.52356L14.0961 8.02193L16.7543 8.14595L16.8242 6.64758L16.8941 5.14921L14.2359 5.02519L14.166 6.52356ZM16.8242 6.64758L16.7931 8.14726L16.9816 8.15117L17.0127 6.65149L17.0438 5.15181L16.8553 5.14791L16.8242 6.64758ZM17.0127 6.65149L17.0263 8.15143C18.3779 8.13917 19.6689 7.56518 20.5845 6.56007L19.4756 5.54993L18.3667 4.53978C18.0148 4.92614 17.5183 5.14684 16.9991 5.15155L17.0127 6.65149ZM19.4756 5.54993L20.5846 6.55989L22.3766 4.59212L21.2676 3.58215L20.1585 2.57219L18.3665 4.53996L19.4756 5.54993ZM21.2676 3.58215L22.349 4.62165L22.5912 4.3697L21.5098 3.3302L20.4284 2.2907L20.1862 2.54266L21.2676 3.58215ZM26 18.0001V16.5001C21.3436 16.5001 17.499 20.3424 17.499 25.0001H18.999H20.499C20.499 22 22.9998 19.5001 26 19.5001V18.0001ZM18.999 25.0001L17.499 25.0002C17.4992 29.6577 21.3441 33.5 25.9999 33.5001L26 32.0001L26.0001 30.5001C23.0002 30.5 20.4991 28 20.499 25.0001L18.999 25.0001ZM26 32.0001L26.0001 33.5001C30.6663 33.5 34.4871 29.6471 34.4873 25.0002L32.9873 25.0001L31.4873 25.0001C31.4872 27.9999 28.9997 30.5 25.9999 30.5001L26 32.0001ZM32.9873 25.0001H34.4873C34.4873 20.3529 30.6664 16.5003 26.0001 16.5001L26 18.0001L25.9999 19.5001C28.9999 19.5002 31.4873 22.0001 31.4873 25.0001H32.9873Z" fill="#99BEEF"/>
<path d="M26 32C29.866 32 33 28.866 33 25C33 21.134 29.866 18 26 18C22.134 18 19 21.134 19 25C19 28.866 22.134 32 26 32Z" stroke="#FFF5B1" stroke-width="3"/>
</svg>
