<svg width="64" height="57" viewBox="0 0 64 57" fill="none" xmlns="http://www.w3.org/2000/svg">
<path fill-rule="evenodd" clip-rule="evenodd" d="M9.45743 56.4615C4.23423 56.4615 0 54.5064 0 52.0946L0 4.36696C0 1.95517 4.23423 2.67029e-05 9.45743 2.67029e-05C14.6806 2.67029e-05 18.9149 1.95517 18.9149 4.36696V52.0946C18.9149 54.5064 14.6806 56.4615 9.45743 56.4615Z" fill="#C1837B"/>
<path fill-rule="evenodd" clip-rule="evenodd" d="M54.2226 56.48C48.9994 56.48 44.7651 54.5248 44.7651 52.113V4.38539C44.7651 1.9736 48.9994 0.0184593 54.2226 0.0184593C59.4458 0.0184593 63.68 1.9736 63.68 4.38539V52.113C63.68 54.5248 59.4458 56.48 54.2226 56.48Z" fill="#C1837B"/>
</svg>
